<svg width="17.000000" height="13.000000" viewBox="0 0 17 13" fill="none" xmlns="http://www.w3.org/2000/svg" xmlns:xlink="http://www.w3.org/1999/xlink">
	<path id="Vector" d="M1.33 12.66C0.87 12.66 0.48 12.5 0.15 12.17C-0.18 11.84 -0.34 11.45 -0.34 11L-0.34 1C-0.34 0.54 -0.17 0.14 0.15 -0.18C0.48 -0.51 0.87 -0.67 1.33 -0.67L14.66 -0.67C15.12 -0.67 15.51 -0.51 15.84 -0.18C16.17 0.14 16.33 0.54 16.33 1L16.33 11C16.33 11.45 16.16 11.85 15.84 12.17C15.51 12.5 15.12 12.66 14.66 12.66L1.33 12.66ZM8 6.83L1.33 2.66L1.33 11L14.66 11L14.66 2.66L8 6.83ZM8 5.16L14.66 1L1.33 1L8 5.16ZM1.33 2.66L1.33 1L1.33 11L1.33 2.66Z" fill="#4F8FF0" fill-opacity="1.000000" fill-rule="nonzero"/>
</svg>
