<svg width="19.000000" height="27.000000" viewBox="0 0 19 27" fill="none" xmlns="http://www.w3.org/2000/svg" xmlns:xlink="http://www.w3.org/1999/xlink">
	<desc>
			Created with Pixso.
	</desc>
	<defs/>
	<path id="Vector" d="M9 5.66C9.88 5.66 10.73 6.01 11.35 6.64C11.98 7.26 12.33 8.11 12.33 8.99C12.33 9.43 12.24 9.87 12.07 10.27C11.91 10.67 11.66 11.04 11.35 11.35C11.04 11.66 10.67 11.91 10.27 12.07C9.87 12.24 9.43 12.33 9 12.33C8.11 12.33 7.26 11.98 6.64 11.35C6.01 10.73 5.66 9.88 5.66 8.99C5.66 8.11 6.01 7.26 6.64 6.64C7.26 6.01 8.11 5.66 9 5.66ZM9 -0.34C11.47 -0.34 13.84 0.64 15.59 2.4C17.34 4.15 18.33 6.52 18.33 8.99C18.33 15.99 9 26.33 9 26.33C9 26.33 -0.34 15.99 -0.34 8.99C-0.34 6.52 0.64 4.15 2.4 2.4C4.15 0.64 6.52 -0.34 9 -0.34ZM9 2.33C7.23 2.33 5.53 3.03 4.28 4.28C3.03 5.53 2.33 7.23 2.33 8.99C2.33 10.33 2.33 12.99 9 21.94C15.66 12.99 15.66 10.33 15.66 8.99C15.66 7.23 14.96 5.53 13.71 4.28C12.46 3.03 10.76 2.33 9 2.33Z" fill="#F8F5F4" fill-opacity="1.000000" fill-rule="nonzero"/>
</svg>
